<svg xmlns="http://www.w3.org/2000/svg" width="231.12" height="68"
     viewBox="0.31799978017807007 8.736998558044434 204.12001037597656 59.36399841308594">
  <g fill="#d65a31">
    <path
      d="M3.265 68.101q-1.363 0-2.15-.797-.797-.787-.797-2.15V29.508q.073-5.896 2.832-10.616 2.759-4.721 7.48-7.438 4.72-2.717 10.605-2.717 6.042 0 10.805 2.759 4.763 2.749 7.511 7.511 2.759 4.763 2.759 10.805 0 5.959-2.675 10.721-2.686 4.763-7.291 7.511-4.605 2.759-10.427 2.759-5.056 0-9.179-2.15-4.112-2.151-6.609-5.707v22.208q0 1.363-.787 2.15-.797.797-2.077.797zm17.97-22.585q4.385 0 7.857-2.035 3.473-2.046 5.476-5.633 2.004-3.588 2.004-8.036 0-4.532-2.004-8.088-2.003-3.546-5.476-5.623-3.472-2.077-7.857-2.077-4.301 0-7.773 2.077-3.472 2.077-5.445 5.623-1.961 3.556-1.961 8.088 0 4.448 1.961 8.036 1.973 3.587 5.445 5.633 3.472 2.035 7.773 2.035zM64.924 67.857q-5.822 0-10.428-2.759-4.605-2.749-7.29-7.511-2.675-4.763-2.675-10.721 0-6.042 2.748-10.805 2.759-4.763 7.522-7.511 4.752-2.759 10.721-2.759t10.689 2.759q4.721 2.748 7.48 7.511 2.759 4.763 2.832 10.805l-2.339 1.804q0 5.445-2.539 9.788-2.528 4.343-6.871 6.871-4.343 2.528-9.85 2.528zm.598-5.287q4.385 0 7.815-2.035 3.441-2.046 5.444-5.634 2.004-3.587 2.004-8.035 0-4.532-2.004-8.088-2.003-3.546-5.444-5.623-3.43-2.077-7.815-2.077-4.301 0-7.774 2.077-3.482 2.077-5.517 5.623-2.036 3.556-2.036 8.088 0 4.448 2.036 8.035 2.035 3.588 5.517 5.634 3.473 2.035 7.774 2.035zm18.053 4.909q-1.28 0-2.119-.787-.828-.797-.828-2.077V51.691l1.437-5.958 4.458 1.133v17.749q0 1.28-.829 2.077-.839.787-2.119.787zM111.602 67.479h-1.584q-4.007 0-7.144-1.888-3.137-1.888-4.941-5.172-1.815-3.283-1.815-7.511V15.972q0-1.29.787-2.119.797-.828 2.077-.828 1.29 0 2.119.828.829.829.829 2.119v36.936q0 3.85 2.266 6.305 2.266 2.455 5.822 2.455h2.035q1.206 0 1.962.828.755.829.755 2.119 0 1.28-.902 2.077-.913.787-2.266.787zm-1.133-34.743h-19.26q-1.133 0-1.888-.714-.756-.724-.756-1.773 0-1.132.756-1.856.755-.714 1.888-.714h19.26q1.133 0 1.888.714.755.724.755 1.856 0 1.049-.755 1.773-.755.714-1.888.714zM125.949 42.03h-3.315q.221-4.689 2.455-8.382 2.224-3.703 5.812-5.822 3.587-2.108 7.972-2.108 3.472 0 5.361.975 1.888.986 1.437 2.875-.304 1.133-1.028 1.51-.714.378-1.731.304-1.018-.084-2.308-.157-4.228-.378-7.511.871-3.283 1.248-5.214 3.818-1.93 2.56-1.93 6.116zm-2.864 25.449q-1.363 0-2.119-.755-.755-.755-.755-2.109V29.033q0-1.354.755-2.109.756-.755 2.119-.755 1.354 0 2.109.755.755.755.755 2.109v35.582q0 1.354-.755 2.109-.755.755-2.109.755zM153.962 67.479q-1.364 0-2.151-.787-.797-.797-.797-2.161V29.117q0-1.364.797-2.161.787-.787 2.151-.787 1.28 0 2.077.787.787.797.787 2.161v35.414q0 1.364-.787 2.161-.797.787-2.077.787zm-.074-49.167q-1.668 0-2.874-1.207-1.206-1.206-1.206-2.947 0-1.889 1.248-2.98 1.238-1.101 2.906-1.101 1.584 0 2.832 1.101 1.249 1.091 1.249 2.98 0 1.741-1.217 2.947-1.207 1.207-2.938 1.207zM182.838 67.857q-5.822 0-10.427-2.759-4.605-2.749-7.291-7.511-2.675-4.763-2.675-10.721 0-6.042 2.759-10.805 2.749-4.763 7.511-7.511 4.763-2.759 10.721-2.759 5.969 0 10.69 2.759 4.72 2.748 7.479 7.511 2.759 4.763 2.833 10.805l-2.34 1.804q0 5.445-2.528 9.788-2.538 4.343-6.881 6.871-4.343 2.528-9.851 2.528zm.598-5.287q4.385 0 7.826-2.035 3.43-2.046 5.434-5.634 2.004-3.587 2.004-8.035 0-4.532-2.004-8.088-2.004-3.546-5.434-5.623-3.441-2.077-7.826-2.077-4.301 0-7.773 2.077-3.472 2.077-5.518 5.623-2.035 3.556-2.035 8.088 0 4.448 2.035 8.035 2.046 3.588 5.518 5.634 3.472 2.035 7.773 2.035zm18.054 4.909q-1.28 0-2.109-.787-.839-.797-.839-2.077V51.691l1.437-5.958 4.459 1.133v17.749q0 1.28-.829 2.077-.829.787-2.119.787z"/>
  </g>
</svg>
