<?xml version="1.0" standalone="no"?>
<!DOCTYPE svg PUBLIC "-//W3C//DTD SVG 20010904//EN"
 "http://www.w3.org/TR/2001/REC-SVG-20010904/DTD/svg10.dtd">
<svg version="1.0" xmlns="http://www.w3.org/2000/svg"
 width="512.000000pt" height="512.000000pt" viewBox="0 0 512.000000 512.000000"
 preserveAspectRatio="xMidYMid meet">
<metadata>
Created by potrace 1.14, written by Peter Selinger 2001-2017
</metadata>
<g transform="translate(0.000000,512.000000) scale(0.100000,-0.100000)"
fill="#000000" stroke="none">
<path d="M2332 5109 c-880 -78 -1672 -623 -2057 -1414 -89 -182 -133 -299
-180 -478 -182 -691 -62 -1436 325 -2031 110 -169 192 -269 345 -421 115 -115
317 -285 339 -285 3 0 7 512 8 1138 4 1275 1 1209 79 1447 160 482 564 830
1072 922 129 23 398 23 532 -1 393 -70 735 -299 942 -631 251 -402 281 -954
77 -1403 -42 -92 -144 -247 -217 -330 -154 -176 -372 -318 -597 -390 -322
-103 -736 -75 -1021 68 -172 87 -341 224 -447 364 l-22 29 0 -725 0 -724 118
-47 c659 -261 1407 -231 2047 82 514 252 918 655 1169 1164 123 250 195 477
238 752 31 200 31 550 0 750 -25 161 -77 365 -128 504 -86 234 -255 530 -414
727 -82 101 -273 292 -374 374 -201 162 -489 326 -731 415 -336 124 -740 176
-1103 144z"/>
<path d="M2395 3643 c-263 -33 -516 -175 -672 -378 -68 -88 -156 -266 -183
-370 -144 -559 123 -1126 614 -1304 130 -47 222 -62 375 -61 291 0 513 86 708
273 168 162 270 357 308 592 111 682 -367 1264 -1028 1254 -51 -1 -105 -4
-122 -6z"/>
</g>
</svg>
